ISO-10303-21;
HEADER;
FILE_DESCRIPTION(('ViewDefinition [DesignTransferView]'),'2;1');
FILE_NAME('bonsai_intro01.ifc','2026-08-10T15:40:00',('BIM'),('BIM CAD BIM'),'Bonsai 0.8.5','Blender + Bonsai IFC','');
FILE_SCHEMA(('IFC4'));
ENDSEC;
DATA;
#1=IFCPERSON($,$,'BIM',$,$,$,$,$);
#2=IFCORGANIZATION($,'BIM CAD BIM',$,$,$);
#3=IFCPERSONANDORGANIZATION(#1,#2,$);
#4=IFCAPPLICATION(#2,'0.8.5','Bonsai','Bonsai');
#5=IFCOWNERHISTORY(#3,#4,$,.ADDED.,$,$,$,1786344000);
#6=IFCSIUNIT(*,.LENGTHUNIT.,.MILLI.,.METRE.);
#7=IFCSIUNIT(*,.AREAUNIT.,$,.SQUARE_METRE.);
#8=IFCSIUNIT(*,.VOLUMEUNIT.,$,.CUBIC_METRE.);
#9=IFCUNITASSIGNMENT((#6,#7,#8));
#10=IFCCARTESIANPOINT((0.,0.,0.));
#11=IFCDIRECTION((0.,0.,1.));
#12=IFCDIRECTION((1.,0.,0.));
#13=IFCAXIS2PLACEMENT3D(#10,#11,#12);
#14=IFCGEOMETRICREPRESENTATIONCONTEXT($,'Model',3,1.0000000000000001E-05,#13,$);
#15=IFCPROJECT('0AAAAAAAAAAAAAAAAAAAAA',#5,'BIM\X2\78144FEE30D730ED30B830A730AF30C8\X0\',$,$,$,$,(#14),#9);
#16=IFCLOCALPLACEMENT($,#13);
#17=IFCSITE('0BBBBBBBBBBBBBBBBBBBBB',#5,'\X2\78144FEE65775730\X0\',$,$,#16,$,$,.ELEMENT.,$,$,$,$,$);
#18=IFCLOCALPLACEMENT(#16,#13);
#19=IFCBUILDING('0CCCCCCCCCCCCCCCCCCCCC',#5,'\X2\8A2D509978144FEE68DF\X0\',$,$,#18,$,$,.ELEMENT.,$,$,$);
#20=IFCLOCALPLACEMENT(#18,#13);
#21=IFCBUILDINGSTOREY('0DDDDDDDDDDDDDDDDDDDDD',#5,'1\X2\968E\X0\',$,$,#20,$,$,.ELEMENT.,0.);
#22=IFCRELAGGREGATES('0EEEEEEEEEEEEEEEEEEEEE',#5,$,$,#15,(#17));
#23=IFCRELAGGREGATES('0FFFFFFFFFFFFFFFFFFFFF',#5,$,$,#17,(#19));
#24=IFCRELAGGREGATES('0GGGGGGGGGGGGGGGGGGGGG',#5,$,$,#19,(#21));
#25=IFCGEOMETRICREPRESENTATIONSUBCONTEXT('Body','Model',*,*,*,*,#14,$,.MODEL_VIEW.,$);
#26=IFCACTORROLE(.USERDEFINED.,'CONTRIBUTOR',$);
#27=IFCORGANIZATION('IfcOpenShell','IfcOpenShell','IfcOpenShell is an open source software library that helps users and software developers to work with IFC data.',(#26),(#28));
#28=IFCTELECOMADDRESS(.USERDEFINED.,$,'WEBPAGE',$,$,$,$,'https://ifcopenshell.org',$);
#29=IFCAPPLICATION(#27,'0.8.5','Bonsai','Bonsai-0.8.5');
#30=IFCOWNERHISTORY(#3,#29,.READWRITE.,.ADDED.,1786353785,#3,#29,1786353785);
#31=IFCSLABTYPE('1NiOF7EczCPhjvS0ORbvli',#30,'\X2\8A2D50995BA45E8A\X0\ t200',$,$,$,$,$,$,.FLOOR.);
#32=IFCMATERIAL('\X2\30B330F330AF30EA30FC30C8\X0\','\X2\78144FEE7528306E53585C645E8A30B930E930D667506599\X0\','concrete');
#33=IFCMATERIALLAYERSET((#34),'\X2\8A2D50995BA45E8A\X0\ t200',$);
#34=IFCMATERIALLAYER(#32,200.,$,'\X2\30B330F330AF30EA30FC30C8\X0\200',$,$,$);
#35=IFCOWNERHISTORY(#3,#29,.READWRITE.,.ADDED.,1786353785,#3,#29,1786353785);
#36=IFCRELASSOCIATESMATERIAL('1OV5qUafTFO9Tkxpr7SQAa',#35,$,$,(#31),#33);
#37=IFCOWNERHISTORY(#3,#29,.READWRITE.,.MODIFIED.,1786353785,#3,#29,1786353785);
#38=IFCSLAB('0Bwrkx6IjFNAeYjUWow3Iq',#37,'\X2\8A2D50995BA45E8A\X0\','\X2\8A2D50995BA4306E78144FEE75285E8A30B930E930D6\X0\ 6000\X2\00D7\X0\4000\X2\00D7\X0\200 mm',$,#50,#57,$,$);
#39=IFCOWNERHISTORY(#3,#29,.READWRITE.,.ADDED.,1786353785,#3,#29,1786353785);
#40=IFCRELDEFINESBYTYPE('2AelaxWnnFAP_1GJLfdlXe',#39,$,$,(#38),#31);
#41=IFCMATERIALLAYERSETUSAGE(#33,.AXIS3.,.POSITIVE.,0.,$);
#42=IFCOWNERHISTORY(#3,#29,.READWRITE.,.ADDED.,1786353785,#3,#29,1786353785);
#43=IFCRELASSOCIATESMATERIAL('1uwWg3FqD4BO0PXuNAhFn4',#42,$,$,(#38),#41);
#44=IFCOWNERHISTORY(#3,#29,.READWRITE.,.MODIFIED.,1786361655,#3,#29,1786353785);
#45=IFCRELCONTAINEDINSPATIALSTRUCTURE('1sS5GLcJf66ufWwvbeElo0',#44,$,$,(#123,#96,#150,#67,#38),#21);
#46=IFCCARTESIANPOINT((0.,0.,0.));
#47=IFCDIRECTION((0.,0.,1.));
#48=IFCDIRECTION((1.,0.,0.));
#49=IFCAXIS2PLACEMENT3D(#46,#47,#48);
#50=IFCLOCALPLACEMENT(#20,#49);
#51=IFCCARTESIANPOINTLIST2D(((0.,0.),(6000.,0.),(6000.,4000.),(0.,4000.),(0.,0.)));
#52=IFCINDEXEDPOLYCURVE(#51,$,$);
#53=IFCDIRECTION((0.,0.,1.));
#54=IFCARBITRARYCLOSEDPROFILEDEF(.AREA.,$,#52);
#55=IFCEXTRUDEDAREASOLID(#54,$,#53,200.);
#56=IFCSHAPEREPRESENTATION(#25,'Body','SweptSolid',(#55));
#57=IFCPRODUCTDEFINITIONSHAPE($,$,(#56));
#58=IFCGEOMETRICREPRESENTATIONSUBCONTEXT('Axis','Model',*,*,*,*,#14,$,.GRAPH_VIEW.,$);
#59=IFCOWNERHISTORY(#3,#29,.READWRITE.,.ADDED.,1786361655,#3,#29,1786361655);
#60=IFCWALLTYPE('2LXtv1CunBHhjUdYsb3A2i',#59,'\X2\591658C1\X0\ t200',$,$,$,$,$,$,.STANDARD.);
#61=IFCMATERIAL('\X2\92447B4B30B330F330AF30EA30FC30C8\X0\','\X2\78144FEE7528306E53585C64591658C167506599\X0\','concrete');
#62=IFCMATERIALLAYERSET((#63),'\X2\591658C1\X0\ t200',$);
#63=IFCMATERIALLAYER(#61,200.,$,'\X2\92447B4B30B330F330AF30EA30FC30C8\X0\200',$,$,$);
#64=IFCOWNERHISTORY(#3,#29,.READWRITE.,.ADDED.,1786361655,#3,#29,1786361655);
#65=IFCRELASSOCIATESMATERIAL('1B4c3LILDCI9xpxsRuyLHX',#64,$,$,(#60),#62);
#66=IFCOWNERHISTORY(#3,#29,.READWRITE.,.MODIFIED.,1786361655,#3,#29,1786361655);
#67=IFCWALL('2J_wC6Q4bB3OauYO7bezew',#66,'\X2\591658C1\X0\ \X2\5357\X0\','\X2\8A2D50995BA4306E78144FEE75285916546858C1\X0\ \X2\95773055\X0\6000 mm\X2\30019AD83055\X0\3000 mm\X2\3001539A3055\X0\200 mm',$,#80,#94,$,$);
#68=IFCOWNERHISTORY(#3,#29,.READWRITE.,.MODIFIED.,1786361655,#3,#29,1786361655);
#69=IFCRELDEFINESBYTYPE('0ZWz49Gcz84eNhlL4HcmKV',#68,$,$,(#123,#96,#67,#150),#60);
#73=IFCMATERIALLAYERSETUSAGE(#62,.AXIS2.,.POSITIVE.,0.,$);
#74=IFCOWNERHISTORY(#3,#29,.READWRITE.,.ADDED.,1786361655,#3,#29,1786361655);
#75=IFCRELASSOCIATESMATERIAL('39iWNpr951bQE$_O6ftoZX',#74,$,$,(#67),#73);
#76=IFCCARTESIANPOINT((0.,0.,0.));
#77=IFCDIRECTION((0.,0.,1.));
#78=IFCDIRECTION((1.,0.,0.));
#79=IFCAXIS2PLACEMENT3D(#76,#77,#78);
#80=IFCLOCALPLACEMENT(#20,#79);
#81=IFCCARTESIANPOINTLIST3D(((0.,0.,0.),(6000.,0.,0.)));
#82=IFCINDEXEDPOLYCURVE(#81,$,.F.);
#83=IFCSHAPEREPRESENTATION(#58,'Axis','Curve3D',(#82));
#84=IFCCARTESIANPOINTLIST2D(((0.,0.),(0.,200.),(6000.,200.),(6000.,0.),(0.,0.)));
#85=IFCINDEXEDPOLYCURVE(#84,$,.F.);
#86=IFCDIRECTION((0.,0.,1.));
#87=IFCARBITRARYCLOSEDPROFILEDEF(.AREA.,$,#85);
#88=IFCCARTESIANPOINT((0.,0.,0.));
#89=IFCDIRECTION((0.,0.,1.));
#90=IFCDIRECTION((1.,0.,0.));
#91=IFCAXIS2PLACEMENT3D(#88,#89,#90);
#92=IFCEXTRUDEDAREASOLID(#87,#91,#86,3000.);
#93=IFCSHAPEREPRESENTATION(#25,'Body','SweptSolid',(#92));
#94=IFCPRODUCTDEFINITIONSHAPE($,$,(#83,#93));
#95=IFCOWNERHISTORY(#3,#29,.READWRITE.,.MODIFIED.,1786361655,#3,#29,1786361655);
#96=IFCWALL('2xVWJFpvvF3QEj2Jto50UY',#95,'\X2\591658C1\X0\ \X2\6771\X0\','\X2\8A2D50995BA4306E78144FEE75285916546858C1\X0\ \X2\95773055\X0\4000 mm\X2\30019AD83055\X0\3000 mm\X2\3001539A3055\X0\200 mm',$,#107,#121,$,$);
#100=IFCMATERIALLAYERSETUSAGE(#62,.AXIS2.,.POSITIVE.,0.,$);
#101=IFCOWNERHISTORY(#3,#29,.READWRITE.,.ADDED.,1786361655,#3,#29,1786361655);
#102=IFCRELASSOCIATESMATERIAL('3SowD$Zu12ZeFG5Se_0aMt',#101,$,$,(#96),#100);
#103=IFCCARTESIANPOINT((6000.,0.,0.));
#104=IFCDIRECTION((0.,0.,1.));
#105=IFCDIRECTION((6.123233995736766E-17,1.,0.));
#106=IFCAXIS2PLACEMENT3D(#103,#104,#105);
#107=IFCLOCALPLACEMENT(#20,#106);
#108=IFCCARTESIANPOINTLIST3D(((0.,0.,0.),(4000.,0.,0.)));
#109=IFCINDEXEDPOLYCURVE(#108,$,.F.);
#110=IFCSHAPEREPRESENTATION(#58,'Axis','Curve3D',(#109));
#111=IFCCARTESIANPOINTLIST2D(((0.,0.),(0.,200.),(4000.,200.),(4000.,0.),(0.,0.)));
#112=IFCINDEXEDPOLYCURVE(#111,$,.F.);
#113=IFCDIRECTION((0.,0.,1.));
#114=IFCARBITRARYCLOSEDPROFILEDEF(.AREA.,$,#112);
#115=IFCCARTESIANPOINT((0.,0.,0.));
#116=IFCDIRECTION((0.,0.,1.));
#117=IFCDIRECTION((1.,0.,0.));
#118=IFCAXIS2PLACEMENT3D(#115,#116,#117);
#119=IFCEXTRUDEDAREASOLID(#114,#118,#113,3000.);
#120=IFCSHAPEREPRESENTATION(#25,'Body','SweptSolid',(#119));
#121=IFCPRODUCTDEFINITIONSHAPE($,$,(#110,#120));
#122=IFCOWNERHISTORY(#3,#29,.READWRITE.,.MODIFIED.,1786361655,#3,#29,1786361655);
#123=IFCWALL('00hkcJIhb9ahEVfyB$OVb1',#122,'\X2\591658C1\X0\ \X2\5317\X0\','\X2\8A2D50995BA4306E78144FEE75285916546858C1\X0\ \X2\95773055\X0\6000 mm\X2\30019AD83055\X0\3000 mm\X2\3001539A3055\X0\200 mm',$,#134,#148,$,$);
#127=IFCMATERIALLAYERSETUSAGE(#62,.AXIS2.,.POSITIVE.,0.,$);
#128=IFCOWNERHISTORY(#3,#29,.READWRITE.,.ADDED.,1786361655,#3,#29,1786361655);
#129=IFCRELASSOCIATESMATERIAL('1ermL4JxH4BgdeNo2i5mS8',#128,$,$,(#123),#127);
#130=IFCCARTESIANPOINT((6000.,4000.,0.));
#131=IFCDIRECTION((0.,0.,1.));
#132=IFCDIRECTION((-1.,1.2246467991473532E-16,0.));
#133=IFCAXIS2PLACEMENT3D(#130,#131,#132);
#134=IFCLOCALPLACEMENT(#20,#133);
#135=IFCCARTESIANPOINTLIST3D(((0.,0.,0.),(6000.,0.,0.)));
#136=IFCINDEXEDPOLYCURVE(#135,$,.F.);
#137=IFCSHAPEREPRESENTATION(#58,'Axis','Curve3D',(#136));
#138=IFCCARTESIANPOINTLIST2D(((0.,0.),(0.,200.),(6000.,200.),(6000.,0.),(0.,0.)));
#139=IFCINDEXEDPOLYCURVE(#138,$,.F.);
#140=IFCDIRECTION((0.,0.,1.));
#141=IFCARBITRARYCLOSEDPROFILEDEF(.AREA.,$,#139);
#142=IFCCARTESIANPOINT((0.,0.,0.));
#143=IFCDIRECTION((0.,0.,1.));
#144=IFCDIRECTION((1.,0.,0.));
#145=IFCAXIS2PLACEMENT3D(#142,#143,#144);
#146=IFCEXTRUDEDAREASOLID(#141,#145,#140,3000.);
#147=IFCSHAPEREPRESENTATION(#25,'Body','SweptSolid',(#146));
#148=IFCPRODUCTDEFINITIONSHAPE($,$,(#137,#147));
#149=IFCOWNERHISTORY(#3,#29,.READWRITE.,.MODIFIED.,1786361655,#3,#29,1786361655);
#150=IFCWALL('20cFi1mn1CSOLAwDPxjU4G',#149,'\X2\591658C1\X0\ \X2\897F\X0\','\X2\8A2D50995BA4306E78144FEE75285916546858C1\X0\ \X2\95773055\X0\4000 mm\X2\30019AD83055\X0\3000 mm\X2\3001539A3055\X0\200 mm',$,#161,#175,$,$);
#154=IFCMATERIALLAYERSETUSAGE(#62,.AXIS2.,.POSITIVE.,0.,$);
#155=IFCOWNERHISTORY(#3,#29,.READWRITE.,.ADDED.,1786361655,#3,#29,1786361655);
#156=IFCRELASSOCIATESMATERIAL('1$VVEuMS13leXe5KI3vZ$l',#155,$,$,(#150),#154);
#157=IFCCARTESIANPOINT((0.,4000.,0.));
#158=IFCDIRECTION((0.,0.,1.));
#159=IFCDIRECTION((6.123233995736766E-17,-1.,0.));
#160=IFCAXIS2PLACEMENT3D(#157,#158,#159);
#161=IFCLOCALPLACEMENT(#20,#160);
#162=IFCCARTESIANPOINTLIST3D(((0.,0.,0.),(4000.,0.,0.)));
#163=IFCINDEXEDPOLYCURVE(#162,$,.F.);
#164=IFCSHAPEREPRESENTATION(#58,'Axis','Curve3D',(#163));
#165=IFCCARTESIANPOINTLIST2D(((0.,0.),(0.,200.),(4000.,200.),(4000.,0.),(0.,0.)));
#166=IFCINDEXEDPOLYCURVE(#165,$,.F.);
#167=IFCDIRECTION((0.,0.,1.));
#168=IFCARBITRARYCLOSEDPROFILEDEF(.AREA.,$,#166);
#169=IFCCARTESIANPOINT((0.,0.,0.));
#170=IFCDIRECTION((0.,0.,1.));
#171=IFCDIRECTION((1.,0.,0.));
#172=IFCAXIS2PLACEMENT3D(#169,#170,#171);
#173=IFCEXTRUDEDAREASOLID(#168,#172,#167,3000.);
#174=IFCSHAPEREPRESENTATION(#25,'Body','SweptSolid',(#173));
#175=IFCPRODUCTDEFINITIONSHAPE($,$,(#164,#174));
ENDSEC;
END-ISO-10303-21;
