ISO-10303-21;
HEADER;
FILE_DESCRIPTION(('ViewDefinition [DesignTransferView]'),'2;1');
FILE_NAME('bonsai_intro01.ifc','2026-08-10T15:40:00',('BIM'),('BIM CAD BIM'),'Bonsai 0.8.5','Blender + Bonsai IFC','');
FILE_SCHEMA(('IFC4'));
ENDSEC;
DATA;
#1=IFCPERSON($,$,'BIM',$,$,$,$,$);
#2=IFCORGANIZATION($,'BIM CAD BIM',$,$,$);
#3=IFCPERSONANDORGANIZATION(#1,#2,$);
#4=IFCAPPLICATION(#2,'0.8.5','Bonsai','Bonsai');
#5=IFCOWNERHISTORY(#3,#4,$,.ADDED.,$,$,$,1786344000);
#6=IFCSIUNIT(*,.LENGTHUNIT.,.MILLI.,.METRE.);
#7=IFCSIUNIT(*,.AREAUNIT.,$,.SQUARE_METRE.);
#8=IFCSIUNIT(*,.VOLUMEUNIT.,$,.CUBIC_METRE.);
#9=IFCUNITASSIGNMENT((#6,#7,#8));
#10=IFCCARTESIANPOINT((0.,0.,0.));
#11=IFCDIRECTION((0.,0.,1.));
#12=IFCDIRECTION((1.,0.,0.));
#13=IFCAXIS2PLACEMENT3D(#10,#11,#12);
#14=IFCGEOMETRICREPRESENTATIONCONTEXT($,'Model',3,1.0000000000000001E-05,#13,$);
#15=IFCPROJECT('0AAAAAAAAAAAAAAAAAAAAA',#5,'BIM\X2\78144FEE30D730ED30B830A730AF30C8\X0\',$,$,$,$,(#14),#9);
#16=IFCLOCALPLACEMENT($,#13);
#17=IFCSITE('0BBBBBBBBBBBBBBBBBBBBB',#5,'\X2\78144FEE65775730\X0\',$,$,#16,$,$,.ELEMENT.,$,$,$,$,$);
#18=IFCLOCALPLACEMENT(#16,#13);
#19=IFCBUILDING('0CCCCCCCCCCCCCCCCCCCCC',#5,'\X2\8A2D509978144FEE68DF\X0\',$,$,#18,$,$,.ELEMENT.,$,$,$);
#20=IFCLOCALPLACEMENT(#18,#13);
#21=IFCBUILDINGSTOREY('0DDDDDDDDDDDDDDDDDDDDD',#5,'1\X2\968E\X0\',$,$,#20,$,$,.ELEMENT.,0.);
#22=IFCRELAGGREGATES('0EEEEEEEEEEEEEEEEEEEEE',#5,$,$,#15,(#17));
#23=IFCRELAGGREGATES('0FFFFFFFFFFFFFFFFFFFFF',#5,$,$,#17,(#19));
#24=IFCRELAGGREGATES('0GGGGGGGGGGGGGGGGGGGGG',#5,$,$,#19,(#21));
#25=IFCGEOMETRICREPRESENTATIONSUBCONTEXT('Body','Model',*,*,*,*,#14,$,.MODEL_VIEW.,$);
#26=IFCACTORROLE(.USERDEFINED.,'CONTRIBUTOR',$);
#27=IFCORGANIZATION('IfcOpenShell','IfcOpenShell','IfcOpenShell is an open source software library that helps users and software developers to work with IFC data.',(#26),(#28));
#28=IFCTELECOMADDRESS(.USERDEFINED.,$,'WEBPAGE',$,$,$,$,'https://ifcopenshell.org',$);
#29=IFCAPPLICATION(#27,'0.8.5','Bonsai','Bonsai-0.8.5');
#30=IFCOWNERHISTORY(#3,#29,.READWRITE.,.ADDED.,1786353785,#3,#29,1786353785);
#31=IFCSLABTYPE('1NiOF7EczCPhjvS0ORbvli',#30,'\X2\8A2D50995BA45E8A\X0\ t200',$,$,$,$,$,$,.FLOOR.);
#32=IFCMATERIAL('\X2\30B330F330AF30EA30FC30C8\X0\','\X2\78144FEE7528306E53585C645E8A30B930E930D667506599\X0\','concrete');
#33=IFCMATERIALLAYERSET((#34),'\X2\8A2D50995BA45E8A\X0\ t200',$);
#34=IFCMATERIALLAYER(#32,200.,$,'\X2\30B330F330AF30EA30FC30C8\X0\200',$,$,$);
#35=IFCOWNERHISTORY(#3,#29,.READWRITE.,.ADDED.,1786353785,#3,#29,1786353785);
#36=IFCRELASSOCIATESMATERIAL('1OV5qUafTFO9Tkxpr7SQAa',#35,$,$,(#31),#33);
#37=IFCOWNERHISTORY(#3,#29,.READWRITE.,.MODIFIED.,1786353785,#3,#29,1786353785);
#38=IFCSLAB('0Bwrkx6IjFNAeYjUWow3Iq',#37,'\X2\8A2D50995BA45E8A\X0\','\X2\8A2D50995BA4306E78144FEE75285E8A30B930E930D6\X0\ 6000\X2\00D7\X0\4000\X2\00D7\X0\200 mm',$,#50,#57,$,$);
#39=IFCOWNERHISTORY(#3,#29,.READWRITE.,.ADDED.,1786353785,#3,#29,1786353785);
#40=IFCRELDEFINESBYTYPE('2AelaxWnnFAP_1GJLfdlXe',#39,$,$,(#38),#31);
#41=IFCMATERIALLAYERSETUSAGE(#33,.AXIS3.,.POSITIVE.,0.,$);
#42=IFCOWNERHISTORY(#3,#29,.READWRITE.,.ADDED.,1786353785,#3,#29,1786353785);
#43=IFCRELASSOCIATESMATERIAL('1uwWg3FqD4BO0PXuNAhFn4',#42,$,$,(#38),#41);
#44=IFCOWNERHISTORY(#3,#29,.READWRITE.,.MODIFIED.,1786405991,#3,#4,1786353785);
#45=IFCRELCONTAINEDINSPATIALSTRUCTURE('1sS5GLcJf66ufWwvbeElo0',#44,$,$,(#123,#96,#150,#317,#179,#38,#67),#21);
#46=IFCCARTESIANPOINT((0.,0.,0.));
#47=IFCDIRECTION((0.,0.,1.));
#48=IFCDIRECTION((1.,0.,0.));
#49=IFCAXIS2PLACEMENT3D(#46,#47,#48);
#50=IFCLOCALPLACEMENT(#20,#49);
#51=IFCCARTESIANPOINTLIST2D(((0.,0.),(6000.,0.),(6000.,4000.),(0.,4000.),(0.,0.)));
#52=IFCINDEXEDPOLYCURVE(#51,$,$);
#53=IFCDIRECTION((0.,0.,1.));
#54=IFCARBITRARYCLOSEDPROFILEDEF(.AREA.,$,#52);
#55=IFCEXTRUDEDAREASOLID(#54,$,#53,200.);
#56=IFCSHAPEREPRESENTATION(#25,'Body','SweptSolid',(#55));
#57=IFCPRODUCTDEFINITIONSHAPE($,$,(#56));
#58=IFCGEOMETRICREPRESENTATIONSUBCONTEXT('Axis','Model',*,*,*,*,#14,$,.GRAPH_VIEW.,$);
#59=IFCOWNERHISTORY(#3,#29,.READWRITE.,.ADDED.,1786361655,#3,#29,1786361655);
#60=IFCWALLTYPE('2LXtv1CunBHhjUdYsb3A2i',#59,'\X2\591658C1\X0\ t200',$,$,$,$,$,$,.STANDARD.);
#61=IFCMATERIAL('\X2\92447B4B30B330F330AF30EA30FC30C8\X0\','\X2\78144FEE7528306E53585C64591658C167506599\X0\','concrete');
#62=IFCMATERIALLAYERSET((#63),'\X2\591658C1\X0\ t200',$);
#63=IFCMATERIALLAYER(#61,200.,$,'\X2\92447B4B30B330F330AF30EA30FC30C8\X0\200',$,$,$);
#64=IFCOWNERHISTORY(#3,#29,.READWRITE.,.ADDED.,1786361655,#3,#29,1786361655);
#65=IFCRELASSOCIATESMATERIAL('1B4c3LILDCI9xpxsRuyLHX',#64,$,$,(#60),#62);
#66=IFCOWNERHISTORY(#3,#29,.READWRITE.,.MODIFIED.,1786361655,#3,#29,1786361655);
#67=IFCWALL('2J_wC6Q4bB3OauYO7bezew',#66,'\X2\591658C1\X0\ \X2\5357\X0\','\X2\8A2D50995BA4306E78144FEE75285916546858C1\X0\ \X2\95773055\X0\6000 mm\X2\30019AD83055\X0\3000 mm\X2\3001539A3055\X0\200 mm',$,#80,#94,$,$);
#68=IFCOWNERHISTORY(#3,#29,.READWRITE.,.MODIFIED.,1786361655,#3,#29,1786361655);
#69=IFCRELDEFINESBYTYPE('0ZWz49Gcz84eNhlL4HcmKV',#68,$,$,(#123,#96,#67,#150),#60);
#73=IFCMATERIALLAYERSETUSAGE(#62,.AXIS2.,.POSITIVE.,0.,$);
#74=IFCOWNERHISTORY(#3,#29,.READWRITE.,.ADDED.,1786361655,#3,#29,1786361655);
#75=IFCRELASSOCIATESMATERIAL('39iWNpr951bQE$_O6ftoZX',#74,$,$,(#67),#73);
#76=IFCCARTESIANPOINT((0.,0.,0.));
#77=IFCDIRECTION((0.,0.,1.));
#78=IFCDIRECTION((1.,0.,0.));
#79=IFCAXIS2PLACEMENT3D(#76,#77,#78);
#80=IFCLOCALPLACEMENT(#20,#79);
#81=IFCCARTESIANPOINTLIST3D(((0.,0.,0.),(6000.,0.,0.)));
#82=IFCINDEXEDPOLYCURVE(#81,$,.F.);
#83=IFCSHAPEREPRESENTATION(#58,'Axis','Curve3D',(#82));
#84=IFCCARTESIANPOINTLIST2D(((0.,0.),(0.,200.),(6000.,200.),(6000.,0.),(0.,0.)));
#85=IFCINDEXEDPOLYCURVE(#84,$,.F.);
#86=IFCDIRECTION((0.,0.,1.));
#87=IFCARBITRARYCLOSEDPROFILEDEF(.AREA.,$,#85);
#88=IFCCARTESIANPOINT((0.,0.,0.));
#89=IFCDIRECTION((0.,0.,1.));
#90=IFCDIRECTION((1.,0.,0.));
#91=IFCAXIS2PLACEMENT3D(#88,#89,#90);
#92=IFCEXTRUDEDAREASOLID(#87,#91,#86,3000.);
#93=IFCSHAPEREPRESENTATION(#25,'Body','SweptSolid',(#92));
#94=IFCPRODUCTDEFINITIONSHAPE($,$,(#83,#93));
#95=IFCOWNERHISTORY(#3,#29,.READWRITE.,.MODIFIED.,1786361655,#3,#29,1786361655);
#96=IFCWALL('2xVWJFpvvF3QEj2Jto50UY',#95,'\X2\591658C1\X0\ \X2\6771\X0\','\X2\8A2D50995BA4306E78144FEE75285916546858C1\X0\ \X2\95773055\X0\4000 mm\X2\30019AD83055\X0\3000 mm\X2\3001539A3055\X0\200 mm',$,#107,#121,$,$);
#100=IFCMATERIALLAYERSETUSAGE(#62,.AXIS2.,.POSITIVE.,0.,$);
#101=IFCOWNERHISTORY(#3,#29,.READWRITE.,.ADDED.,1786361655,#3,#29,1786361655);
#102=IFCRELASSOCIATESMATERIAL('3SowD$Zu12ZeFG5Se_0aMt',#101,$,$,(#96),#100);
#103=IFCCARTESIANPOINT((6000.,0.,0.));
#104=IFCDIRECTION((0.,0.,1.));
#105=IFCDIRECTION((6.123233995736766E-17,1.,0.));
#106=IFCAXIS2PLACEMENT3D(#103,#104,#105);
#107=IFCLOCALPLACEMENT(#20,#106);
#108=IFCCARTESIANPOINTLIST3D(((0.,0.,0.),(4000.,0.,0.)));
#109=IFCINDEXEDPOLYCURVE(#108,$,.F.);
#110=IFCSHAPEREPRESENTATION(#58,'Axis','Curve3D',(#109));
#111=IFCCARTESIANPOINTLIST2D(((0.,0.),(0.,200.),(4000.,200.),(4000.,0.),(0.,0.)));
#112=IFCINDEXEDPOLYCURVE(#111,$,.F.);
#113=IFCDIRECTION((0.,0.,1.));
#114=IFCARBITRARYCLOSEDPROFILEDEF(.AREA.,$,#112);
#115=IFCCARTESIANPOINT((0.,0.,0.));
#116=IFCDIRECTION((0.,0.,1.));
#117=IFCDIRECTION((1.,0.,0.));
#118=IFCAXIS2PLACEMENT3D(#115,#116,#117);
#119=IFCEXTRUDEDAREASOLID(#114,#118,#113,3000.);
#120=IFCSHAPEREPRESENTATION(#25,'Body','SweptSolid',(#119));
#121=IFCPRODUCTDEFINITIONSHAPE($,$,(#110,#120));
#122=IFCOWNERHISTORY(#3,#29,.READWRITE.,.MODIFIED.,1786361655,#3,#29,1786361655);
#123=IFCWALL('00hkcJIhb9ahEVfyB$OVb1',#122,'\X2\591658C1\X0\ \X2\5317\X0\','\X2\8A2D50995BA4306E78144FEE75285916546858C1\X0\ \X2\95773055\X0\6000 mm\X2\30019AD83055\X0\3000 mm\X2\3001539A3055\X0\200 mm',$,#134,#148,$,$);
#127=IFCMATERIALLAYERSETUSAGE(#62,.AXIS2.,.POSITIVE.,0.,$);
#128=IFCOWNERHISTORY(#3,#29,.READWRITE.,.ADDED.,1786361655,#3,#29,1786361655);
#129=IFCRELASSOCIATESMATERIAL('1ermL4JxH4BgdeNo2i5mS8',#128,$,$,(#123),#127);
#130=IFCCARTESIANPOINT((6000.,4000.,0.));
#131=IFCDIRECTION((0.,0.,1.));
#132=IFCDIRECTION((-1.,1.2246467991473532E-16,0.));
#133=IFCAXIS2PLACEMENT3D(#130,#131,#132);
#134=IFCLOCALPLACEMENT(#20,#133);
#135=IFCCARTESIANPOINTLIST3D(((0.,0.,0.),(6000.,0.,0.)));
#136=IFCINDEXEDPOLYCURVE(#135,$,.F.);
#137=IFCSHAPEREPRESENTATION(#58,'Axis','Curve3D',(#136));
#138=IFCCARTESIANPOINTLIST2D(((0.,0.),(0.,200.),(6000.,200.),(6000.,0.),(0.,0.)));
#139=IFCINDEXEDPOLYCURVE(#138,$,.F.);
#140=IFCDIRECTION((0.,0.,1.));
#141=IFCARBITRARYCLOSEDPROFILEDEF(.AREA.,$,#139);
#142=IFCCARTESIANPOINT((0.,0.,0.));
#143=IFCDIRECTION((0.,0.,1.));
#144=IFCDIRECTION((1.,0.,0.));
#145=IFCAXIS2PLACEMENT3D(#142,#143,#144);
#146=IFCEXTRUDEDAREASOLID(#141,#145,#140,3000.);
#147=IFCSHAPEREPRESENTATION(#25,'Body','SweptSolid',(#146));
#148=IFCPRODUCTDEFINITIONSHAPE($,$,(#137,#147));
#149=IFCOWNERHISTORY(#3,#29,.READWRITE.,.MODIFIED.,1786361655,#3,#29,1786361655);
#150=IFCWALL('20cFi1mn1CSOLAwDPxjU4G',#149,'\X2\591658C1\X0\ \X2\897F\X0\','\X2\8A2D50995BA4306E78144FEE75285916546858C1\X0\ \X2\95773055\X0\4000 mm\X2\30019AD83055\X0\3000 mm\X2\3001539A3055\X0\200 mm',$,#161,#175,$,$);
#154=IFCMATERIALLAYERSETUSAGE(#62,.AXIS2.,.POSITIVE.,0.,$);
#155=IFCOWNERHISTORY(#3,#29,.READWRITE.,.ADDED.,1786361655,#3,#29,1786361655);
#156=IFCRELASSOCIATESMATERIAL('1$VVEuMS13leXe5KI3vZ$l',#155,$,$,(#150),#154);
#157=IFCCARTESIANPOINT((0.,4000.,0.));
#158=IFCDIRECTION((0.,0.,1.));
#159=IFCDIRECTION((6.123233995736766E-17,-1.,0.));
#160=IFCAXIS2PLACEMENT3D(#157,#158,#159);
#161=IFCLOCALPLACEMENT(#20,#160);
#162=IFCCARTESIANPOINTLIST3D(((0.,0.,0.),(4000.,0.,0.)));
#163=IFCINDEXEDPOLYCURVE(#162,$,.F.);
#164=IFCSHAPEREPRESENTATION(#58,'Axis','Curve3D',(#163));
#165=IFCCARTESIANPOINTLIST2D(((0.,0.),(0.,200.),(4000.,200.),(4000.,0.),(0.,0.)));
#166=IFCINDEXEDPOLYCURVE(#165,$,.F.);
#167=IFCDIRECTION((0.,0.,1.));
#168=IFCARBITRARYCLOSEDPROFILEDEF(.AREA.,$,#166);
#169=IFCCARTESIANPOINT((0.,0.,0.));
#170=IFCDIRECTION((0.,0.,1.));
#171=IFCDIRECTION((1.,0.,0.));
#172=IFCAXIS2PLACEMENT3D(#169,#170,#171);
#173=IFCEXTRUDEDAREASOLID(#168,#172,#167,3000.);
#174=IFCSHAPEREPRESENTATION(#25,'Body','SweptSolid',(#173));
#175=IFCPRODUCTDEFINITIONSHAPE($,$,(#164,#174));
#176=IFCOWNERHISTORY(#3,#4,.READWRITE.,.ADDED.,1786405991,#3,#4,1786405991);
#177=IFCDOORTYPE('0HTkkW889EXR_E1l6nkiuo',#176,'\X2\8A2D5099642C516575286249\X0\ W1500\X2\00D7\X0\H2100',$,$,$,$,$,$,.DOOR.,.DOUBLE_DOOR_SINGLE_SWING.,.T.,$);
#178=IFCOWNERHISTORY(#3,#4,.READWRITE.,.MODIFIED.,1786405991,#3,#4,1786405991);
#179=IFCDOOR('0lmS1ke$X4peMa3PhLGoPF',#178,'\X2\8A2D5099642C516575286249\X0\ \X2\5357\X0\','\X2\78144FEE7528306E4E21958B304D642C516575286249\X0\ W1500\X2\00D7\X0\H2100 mm\X2\30025B9F68484EF63067306F642C5165726930019632706B3001907F96E33001906E97F37B49309278BA8A8D3059308B3002\X0\',$,#186,#287,$,2100.,1500.,$,$,$);
#180=IFCOWNERHISTORY(#3,#4,.READWRITE.,.ADDED.,1786405991,#3,#4,1786405991);
#181=IFCRELDEFINESBYTYPE('1RHtS1TqjCAf_qQcX7xEBL',#180,$,$,(#179),#177);
#182=IFCCARTESIANPOINT((750.,75.,0.));
#183=IFCDIRECTION((0.,0.,1.));
#184=IFCDIRECTION((1.,0.,0.));
#185=IFCAXIS2PLACEMENT3D(#182,#183,#184);
#186=IFCLOCALPLACEMENT(#20,#185);
#187=IFCCARTESIANPOINTLIST2D(((0.,0.),(0.,2100.),(1500.,2100.),(1500.,0.),(1475.,0.),(1475.,2075.),(25.,2075.),(25.,0.)));
#188=IFCINDEXEDPOLYCURVE(#187,(IFCLINEINDEX((1,2,3,4,5,6,7,8,1))),$);
#189=IFCARBITRARYCLOSEDPROFILEDEF(.AREA.,$,#188);
#190=IFCCARTESIANPOINT((0.,25.,0.));
#191=IFCDIRECTION((0.,-1.,0.));
#192=IFCDIRECTION((1.,0.,0.));
#193=IFCAXIS2PLACEMENT3D(#190,#191,#192);
#194=IFCDIRECTION((0.,0.,-1.));
#195=IFCEXTRUDEDAREASOLID(#189,#193,#194,175.);
#196=IFCCARTESIANPOINTLIST2D(((0.,0.),(0.,2100.),(1500.,2100.),(1500.,0.),(1450.,0.),(1450.,2050.),(50.,2050.),(50.,0.)));
#197=IFCINDEXEDPOLYCURVE(#196,(IFCLINEINDEX((1,2,3,4,5,6,7,8,1))),$);
#198=IFCARBITRARYCLOSEDPROFILEDEF(.AREA.,$,#197);
#199=IFCCARTESIANPOINT((0.,0.,0.));
#200=IFCDIRECTION((0.,-1.,0.));
#201=IFCDIRECTION((1.,0.,0.));
#202=IFCAXIS2PLACEMENT3D(#199,#200,#201);
#203=IFCDIRECTION((0.,0.,-1.));
#204=IFCEXTRUDEDAREASOLID(#198,#202,#203,25.);
#205=IFCCARTESIANPOINTLIST2D(((0.,0.),(1400.,0.),(1400.,100.),(0.,100.)));
#206=IFCINDEXEDPOLYCURVE(#205,(IFCLINEINDEX((1,2,3,4,1))),$);
#207=IFCARBITRARYCLOSEDPROFILEDEF(.AREA.,$,#206);
#208=IFCCARTESIANPOINT((50.,0.,0.));
#209=IFCDIRECTION((0.,0.,1.));
#210=IFCDIRECTION((1.,0.,0.));
#211=IFCAXIS2PLACEMENT3D(#208,#209,#210);
#212=IFCDIRECTION((0.,0.,1.));
#213=IFCEXTRUDEDAREASOLID(#207,#211,#212,25.);
#214=IFCCARTESIANPOINTLIST2D(((0.,0.),(0.,2125.),(1550.,2125.),(1550.,0.),(1475.,0.),(1475.,2050.),(75.,2050.),(75.,0.)));
#215=IFCINDEXEDPOLYCURVE(#214,(IFCLINEINDEX((1,2,3,4,5,6,7,8,1))),$);
#216=IFCARBITRARYCLOSEDPROFILEDEF(.AREA.,$,#215);
#217=IFCCARTESIANPOINT((-25.,-5.,0.));
#218=IFCDIRECTION((0.,-1.,0.));
#219=IFCDIRECTION((1.,0.,0.));
#220=IFCAXIS2PLACEMENT3D(#217,#218,#219);
#221=IFCDIRECTION((0.,0.,-1.));
#222=IFCEXTRUDEDAREASOLID(#216,#220,#221,5.);
#223=IFCCARTESIANPOINTLIST2D(((0.,0.),(0.,2125.),(1550.,2125.),(1550.,0.),(1500.,0.),(1500.,2075.),(50.,2075.),(50.,0.)));
#224=IFCINDEXEDPOLYCURVE(#223,(IFCLINEINDEX((1,2,3,4,5,6,7,8,1))),$);
#225=IFCARBITRARYCLOSEDPROFILEDEF(.AREA.,$,#224);
#226=IFCCARTESIANPOINT((-25.,200.,0.));
#227=IFCDIRECTION((0.,-1.,0.));
#228=IFCDIRECTION((1.,0.,0.));
#229=IFCAXIS2PLACEMENT3D(#226,#227,#228);
#230=IFCDIRECTION((0.,0.,-1.));
#231=IFCEXTRUDEDAREASOLID(#225,#229,#230,5.);
#232=IFCCARTESIANPOINTLIST2D(((0.,0.),(724.,0.),(724.,35.),(0.,35.)));
#233=IFCINDEXEDPOLYCURVE(#232,(IFCLINEINDEX((1,2,3,4,1))),$);
#234=IFCARBITRARYCLOSEDPROFILEDEF(.AREA.,$,#233);
#235=IFCCARTESIANPOINT((25.,25.,25.));
#236=IFCDIRECTION((0.,0.,1.));
#237=IFCDIRECTION((1.,0.,0.));
#238=IFCAXIS2PLACEMENT3D(#235,#236,#237);
#239=IFCDIRECTION((0.,0.,1.));
#240=IFCEXTRUDEDAREASOLID(#234,#238,#239,2050.);
#241=IFCCARTESIANPOINTLIST2D(((0.,0.),(0.,-40.),(-120.,-40.),(-120.,-20.),(-20.,-20.),(-20.,0.)));
#242=IFCINDEXEDPOLYCURVE(#241,(IFCLINEINDEX((1,2,3,4,5,6,1))),$);
#243=IFCARBITRARYCLOSEDPROFILEDEF(.AREA.,$,#242);
#244=IFCCARTESIANPOINT((699.,25.,1015.));
#245=IFCDIRECTION((0.,0.,1.));
#246=IFCDIRECTION((1.,0.,0.));
#247=IFCAXIS2PLACEMENT3D(#244,#245,#246);
#248=IFCDIRECTION((0.,0.,1.));
#249=IFCEXTRUDEDAREASOLID(#243,#247,#248,20.);
#250=IFCEXTRUDEDAREASOLID(#251,#254,#258,20.);
#251=IFCARBITRARYCLOSEDPROFILEDEF(.AREA.,$,#252);
#252=IFCINDEXEDPOLYCURVE(#253,(IFCLINEINDEX((1,2,3,4,5,6,1))),$);
#253=IFCCARTESIANPOINTLIST2D(((0.,0.),(0.,40.),(-120.,40.),(-120.,20.),(-20.,20.),(-20.,0.)));
#254=IFCAXIS2PLACEMENT3D(#255,#256,#257);
#255=IFCCARTESIANPOINT((699.,60.,1015.));
#256=IFCDIRECTION((0.,0.,1.));
#257=IFCDIRECTION((1.,0.,0.));
#258=IFCDIRECTION((0.,0.,1.));
#259=IFCEXTRUDEDAREASOLID(#260,#263,#267,2050.);
#260=IFCARBITRARYCLOSEDPROFILEDEF(.AREA.,$,#261);
#261=IFCINDEXEDPOLYCURVE(#262,(IFCLINEINDEX((1,2,3,4,1))),$);
#262=IFCCARTESIANPOINTLIST2D(((0.,0.),(-724.,0.),(-724.,35.),(0.,35.)));
#263=IFCAXIS2PLACEMENT3D(#264,#265,#266);
#264=IFCCARTESIANPOINT((1475.,25.,25.));
#265=IFCDIRECTION((0.,0.,1.));
#266=IFCDIRECTION((1.,0.,0.));
#267=IFCDIRECTION((0.,0.,1.));
#268=IFCEXTRUDEDAREASOLID(#269,#272,#276,20.);
#269=IFCARBITRARYCLOSEDPROFILEDEF(.AREA.,$,#270);
#270=IFCINDEXEDPOLYCURVE(#271,(IFCLINEINDEX((1,2,3,4,5,6,1))),$);
#271=IFCCARTESIANPOINTLIST2D(((0.,0.),(0.,-40.),(120.,-40.),(120.,-20.),(20.,-20.),(20.,0.)));
#272=IFCAXIS2PLACEMENT3D(#273,#274,#275);
#273=IFCCARTESIANPOINT((801.,25.,1015.));
#274=IFCDIRECTION((0.,0.,1.));
#275=IFCDIRECTION((1.,0.,0.));
#276=IFCDIRECTION((0.,0.,1.));
#277=IFCEXTRUDEDAREASOLID(#278,#281,#285,20.);
#278=IFCARBITRARYCLOSEDPROFILEDEF(.AREA.,$,#279);
#279=IFCINDEXEDPOLYCURVE(#280,(IFCLINEINDEX((1,2,3,4,5,6,1))),$);
#280=IFCCARTESIANPOINTLIST2D(((0.,0.),(0.,40.),(120.,40.),(120.,20.),(20.,20.),(20.,0.)));
#281=IFCAXIS2PLACEMENT3D(#282,#283,#284);
#282=IFCCARTESIANPOINT((801.,60.,1015.));
#283=IFCDIRECTION((0.,0.,1.));
#284=IFCDIRECTION((1.,0.,0.));
#285=IFCDIRECTION((0.,0.,1.));
#286=IFCSHAPEREPRESENTATION(#25,'Body','SweptSolid',(#195,#204,#240,#249,#250,#259,#268,#277,#213,#222,#231));
#287=IFCPRODUCTDEFINITIONSHAPE($,$,(#286));
#288=IFCOWNERHISTORY(#3,#4,.READWRITE.,.MODIFIED.,1786405991,#3,#4,1786405991);
#289=IFCOPENINGELEMENT('0EGL$GeTv9duxOghfDfu5d',#288,'\X2\958B53E3\X0\ \X2\8A2D5099642C516575286249\X0\ \X2\5357\X0\',$,$,#312,#305,$,.OPENING.);
#295=IFCCARTESIANPOINTLIST2D(((0.,0.),(0.,400.),(1500.,400.),(1500.,0.),(0.,0.)));
#296=IFCINDEXEDPOLYCURVE(#295,$,.F.);
#297=IFCDIRECTION((0.,0.,1.));
#298=IFCARBITRARYCLOSEDPROFILEDEF(.AREA.,$,#296);
#299=IFCCARTESIANPOINT((0.,0.,0.));
#300=IFCDIRECTION((0.,0.,1.));
#301=IFCDIRECTION((1.,0.,0.));
#302=IFCAXIS2PLACEMENT3D(#299,#300,#301);
#303=IFCEXTRUDEDAREASOLID(#298,#302,#297,2100.);
#304=IFCSHAPEREPRESENTATION(#25,'Body','SweptSolid',(#303));
#305=IFCPRODUCTDEFINITIONSHAPE($,$,(#304));
#306=IFCOWNERHISTORY(#3,#4,.READWRITE.,.ADDED.,1786405991,#3,#4,1786405991);
#307=IFCRELVOIDSELEMENT('0wObtMv916o8YMgFmkBGYD',#306,$,$,#67,#289);
#308=IFCCARTESIANPOINT((750.,-100.,0.));
#309=IFCDIRECTION((0.,0.,1.));
#310=IFCDIRECTION((1.,0.,0.));
#311=IFCAXIS2PLACEMENT3D(#308,#309,#310);
#312=IFCLOCALPLACEMENT(#80,#311);
#313=IFCRELFILLSELEMENT('3jOoGzHWfBKvCLHseTaT15',$,$,$,#289,#179);
#314=IFCOWNERHISTORY(#3,#4,.READWRITE.,.ADDED.,1786405991,#3,#4,1786405991);
#315=IFCWINDOWTYPE('22iVQDQSDETvshESkiFXET',#314,'\X2\8A2D50995BA47A93\X0\ W1200\X2\00D7\X0\H900',$,$,$,$,$,$,.WINDOW.,.SINGLE_PANEL.,.T.,$);
#316=IFCOWNERHISTORY(#3,#4,.READWRITE.,.MODIFIED.,1786405991,#3,#4,1786405991);
#317=IFCWINDOW('1YzcZM4j9FlOgDResw2ZhU',#316,'\X2\8A2D50995BA47A93\X0\ \X2\5317\X0\','\X2\78144FEE7528306E53587A93\X0\ W1200\X2\00D7\X0\H900 mm\X2\300181709AD8\X0\1200 mm\X2\30025B9F68484EF63067306F9632706B300163DB6C173001906E97F330017D5097323001591658C167614EF67B49309278BA8A8D3059308B3002\X0\',$,#324,#368,$,900.,1200.,$,$,$);
#318=IFCOWNERHISTORY(#3,#4,.READWRITE.,.ADDED.,1786405991,#3,#4,1786405991);
#319=IFCRELDEFINESBYTYPE('3kY7yjr$b8wPlo4Dpmhd9Q',#318,$,$,(#317),#315);
#320=IFCCARTESIANPOINT((3600.,3924.9999999999995,1200.));
#321=IFCDIRECTION((0.,0.,1.));
#322=IFCDIRECTION((-1.,1.2246467991473532E-16,0.));
#323=IFCAXIS2PLACEMENT3D(#320,#321,#322);
#324=IFCLOCALPLACEMENT(#20,#323);
#325=IFCCARTESIANPOINTLIST2D(((0.,0.),(1200.,0.),(1200.,900.),(0.,900.)));
#326=IFCINDEXEDPOLYCURVE(#325,(IFCLINEINDEX((1,2,3,4,1))),$);
#327=IFCCARTESIANPOINTLIST2D(((25.,25.),(1175.,25.),(1175.,875.),(25.,875.)));
#328=IFCINDEXEDPOLYCURVE(#327,(IFCLINEINDEX((1,2,3,4,1))),$);
#329=IFCARBITRARYPROFILEDEFWITHVOIDS(.AREA.,$,#326,(#328));
#330=IFCCARTESIANPOINT((0.,190.,0.));
#331=IFCDIRECTION((0.,-1.,0.));
#332=IFCDIRECTION((1.,0.,0.));
#333=IFCAXIS2PLACEMENT3D(#330,#331,#332);
#334=IFCDIRECTION((0.,0.,-1.));
#335=IFCEXTRUDEDAREASOLID(#329,#333,#334,10.);
#336=IFCCARTESIANPOINTLIST2D(((0.,0.),(1200.,0.),(1200.,900.),(0.,900.)));
#337=IFCINDEXEDPOLYCURVE(#336,(IFCLINEINDEX((1,2,3,4,1))),$);
#338=IFCCARTESIANPOINTLIST2D(((50.,50.),(1150.,50.),(1150.,850.),(50.,850.)));
#339=IFCINDEXEDPOLYCURVE(#338,(IFCLINEINDEX((1,2,3,4,1))),$);
#340=IFCARBITRARYPROFILEDEFWITHVOIDS(.AREA.,$,#337,(#339));
#341=IFCCARTESIANPOINT((0.,0.,0.));
#342=IFCDIRECTION((0.,-1.,0.));
#343=IFCDIRECTION((1.,0.,0.));
#344=IFCAXIS2PLACEMENT3D(#341,#342,#343);
#345=IFCDIRECTION((0.,0.,-1.));
#346=IFCEXTRUDEDAREASOLID(#340,#344,#345,190.);
#347=IFCCARTESIANPOINTLIST2D(((0.,0.),(1150.,0.),(1150.,850.),(0.,850.)));
#348=IFCINDEXEDPOLYCURVE(#347,(IFCLINEINDEX((1,2,3,4,1))),$);
#349=IFCCARTESIANPOINTLIST2D(((35.,35.),(1115.,35.),(1115.,815.),(35.,815.)));
#350=IFCINDEXEDPOLYCURVE(#349,(IFCLINEINDEX((1,2,3,4,1))),$);
#351=IFCARBITRARYPROFILEDEFWITHVOIDS(.AREA.,$,#348,(#350));
#352=IFCCARTESIANPOINT((25.,190.,25.));
#353=IFCDIRECTION((0.,-1.,0.));
#354=IFCDIRECTION((1.,0.,0.));
#355=IFCAXIS2PLACEMENT3D(#352,#353,#354);
#356=IFCDIRECTION((0.,0.,-1.));
#357=IFCEXTRUDEDAREASOLID(#351,#355,#356,35.);
#358=IFCINDEXEDPOLYCURVE(#359,(IFCLINEINDEX((1,2,3,4,1))),$);
#359=IFCCARTESIANPOINTLIST2D(((35.,35.),(1115.,35.),(1115.,815.),(35.,815.)));
#360=IFCARBITRARYCLOSEDPROFILEDEF(.AREA.,$,#358);
#361=IFCCARTESIANPOINT((25.,202.5,25.));
#362=IFCDIRECTION((0.,-1.,0.));
#363=IFCDIRECTION((1.,0.,0.));
#364=IFCAXIS2PLACEMENT3D(#361,#362,#363);
#365=IFCDIRECTION((0.,0.,-1.));
#366=IFCEXTRUDEDAREASOLID(#360,#364,#365,10.);
#367=IFCSHAPEREPRESENTATION(#25,'Body','SweptSolid',(#335,#346,#357,#366));
#368=IFCPRODUCTDEFINITIONSHAPE($,$,(#367));
#369=IFCOWNERHISTORY(#3,#4,.READWRITE.,.MODIFIED.,1786405991,#3,#4,1786405991);
#370=IFCOPENINGELEMENT('200dOXRBrEsuNa7teTUjF$',#369,'\X2\958B53E3\X0\ \X2\8A2D50995BA47A93\X0\ \X2\5317\X0\',$,$,#393,#386,$,.OPENING.);
#376=IFCCARTESIANPOINTLIST2D(((0.,0.),(0.,400.),(1200.,400.),(1200.,0.),(0.,0.)));
#377=IFCINDEXEDPOLYCURVE(#376,$,.F.);
#378=IFCDIRECTION((0.,0.,1.));
#379=IFCARBITRARYCLOSEDPROFILEDEF(.AREA.,$,#377);
#380=IFCCARTESIANPOINT((0.,0.,0.));
#381=IFCDIRECTION((0.,0.,1.));
#382=IFCDIRECTION((1.,0.,0.));
#383=IFCAXIS2PLACEMENT3D(#380,#381,#382);
#384=IFCEXTRUDEDAREASOLID(#379,#383,#378,900.);
#385=IFCSHAPEREPRESENTATION(#25,'Body','SweptSolid',(#384));
#386=IFCPRODUCTDEFINITIONSHAPE($,$,(#385));
#387=IFCOWNERHISTORY(#3,#4,.READWRITE.,.ADDED.,1786405991,#3,#4,1786405991);
#388=IFCRELVOIDSELEMENT('2tUzVId0j4xgtEJqiarIR7',#387,$,$,#123,#370);
#389=IFCCARTESIANPOINT((2399.9999999999995,-99.999999999998749,1200.));
#390=IFCDIRECTION((0.,0.,1.));
#391=IFCDIRECTION((1.,0.,0.));
#392=IFCAXIS2PLACEMENT3D(#389,#390,#391);
#393=IFCLOCALPLACEMENT(#134,#392);
#394=IFCRELFILLSELEMENT('12zNnHW699y9BLFxv3pUyJ',$,$,$,#370,#317);
ENDSEC;
END-ISO-10303-21;
