ISO-10303-21;
HEADER;
FILE_DESCRIPTION(('ViewDefinition [DesignTransferView]'),'2;1');
FILE_NAME('bonsai_intro01.ifc','2026-08-10T15:40:00',('BIM'),('BIM CAD BIM'),'Bonsai 0.8.5','Blender + Bonsai IFC','');
FILE_SCHEMA(('IFC4'));
ENDSEC;
DATA;
#1=IFCPERSON($,$,'BIM',$,$,$,$,$);
#2=IFCORGANIZATION($,'BIM CAD BIM',$,$,$);
#3=IFCPERSONANDORGANIZATION(#1,#2,$);
#4=IFCAPPLICATION(#2,'0.8.5','Bonsai','Bonsai');
#5=IFCOWNERHISTORY(#3,#4,$,.ADDED.,$,$,$,1786344000);
#6=IFCSIUNIT(*,.LENGTHUNIT.,.MILLI.,.METRE.);
#7=IFCSIUNIT(*,.AREAUNIT.,$,.SQUARE_METRE.);
#8=IFCSIUNIT(*,.VOLUMEUNIT.,$,.CUBIC_METRE.);
#9=IFCUNITASSIGNMENT((#6,#7,#8));
#10=IFCCARTESIANPOINT((0.,0.,0.));
#11=IFCDIRECTION((0.,0.,1.));
#12=IFCDIRECTION((1.,0.,0.));
#13=IFCAXIS2PLACEMENT3D(#10,#11,#12);
#14=IFCGEOMETRICREPRESENTATIONCONTEXT($,'Model',3,1.0000000000000001E-05,#13,$);
#15=IFCPROJECT('0AAAAAAAAAAAAAAAAAAAAA',#5,'BIM\X2\78144FEE30D730ED30B830A730AF30C8\X0\',$,$,$,$,(#14),#9);
#16=IFCLOCALPLACEMENT($,#13);
#17=IFCSITE('0BBBBBBBBBBBBBBBBBBBBB',#5,'\X2\78144FEE65775730\X0\',$,$,#16,$,$,.ELEMENT.,$,$,$,$,$);
#18=IFCLOCALPLACEMENT(#16,#13);
#19=IFCBUILDING('0CCCCCCCCCCCCCCCCCCCCC',#5,'\X2\8A2D509978144FEE68DF\X0\',$,$,#18,$,$,.ELEMENT.,$,$,$);
#20=IFCLOCALPLACEMENT(#18,#13);
#21=IFCBUILDINGSTOREY('0DDDDDDDDDDDDDDDDDDDDD',#5,'1\X2\968E\X0\',$,$,#20,$,$,.ELEMENT.,0.);
#22=IFCRELAGGREGATES('0EEEEEEEEEEEEEEEEEEEEE',#5,$,$,#15,(#17));
#23=IFCRELAGGREGATES('0FFFFFFFFFFFFFFFFFFFFF',#5,$,$,#17,(#19));
#24=IFCRELAGGREGATES('0GGGGGGGGGGGGGGGGGGGGG',#5,$,$,#19,(#21));
#25=IFCGEOMETRICREPRESENTATIONSUBCONTEXT('Body','Model',*,*,*,*,#14,$,.MODEL_VIEW.,$);
#26=IFCACTORROLE(.USERDEFINED.,'CONTRIBUTOR',$);
#27=IFCORGANIZATION('IfcOpenShell','IfcOpenShell','IfcOpenShell is an open source software library that helps users and software developers to work with IFC data.',(#26),(#28));
#28=IFCTELECOMADDRESS(.USERDEFINED.,$,'WEBPAGE',$,$,$,$,'https://ifcopenshell.org',$);
#29=IFCAPPLICATION(#27,'0.8.5','Bonsai','Bonsai-0.8.5');
#30=IFCOWNERHISTORY(#3,#29,.READWRITE.,.ADDED.,1786352126,#3,#29,1786352126);
#31=IFCSLABTYPE('1wrcUKz3LD$Q3H$RtFYm5K',#30,'\X2\8A2D50995BA45E8A\X0\ t150',$,$,$,$,$,$,.FLOOR.);
#32=IFCMATERIAL('\X2\30B330F330AF30EA30FC30C8\X0\','\X2\78144FEE7528306E53585C645E8A30B930E930D667506599\X0\','concrete');
#33=IFCMATERIALLAYERSET((#34),'\X2\8A2D50995BA45E8A\X0\ t150',$);
#34=IFCMATERIALLAYER(#32,150.,$,'\X2\30B330F330AF30EA30FC30C8\X0\150',$,$,$);
#35=IFCOWNERHISTORY(#3,#29,.READWRITE.,.ADDED.,1786352126,#3,#29,1786352126);
#36=IFCRELASSOCIATESMATERIAL('2nornR9ZX7wObemtajuUDz',#35,$,$,(#31),#33);
#37=IFCOWNERHISTORY(#3,#29,.READWRITE.,.MODIFIED.,1786352126,#3,#29,1786352126);
#38=IFCSLAB('2kudcCqnH5oQqLi$sMQVoe',#37,'\X2\8A2D50995BA45E8A\X0\','\X2\8A2D50995BA4306E78144FEE75285E8A30B930E930D6\X0\ 6000\X2\00D7\X0\4000\X2\00D7\X0\150 mm',$,#50,#57,$,$);
#39=IFCOWNERHISTORY(#3,#29,.READWRITE.,.ADDED.,1786352126,#3,#29,1786352126);
#40=IFCRELDEFINESBYTYPE('2iKKrOR852rQESeYC94FmX',#39,$,$,(#38),#31);
#41=IFCMATERIALLAYERSETUSAGE(#33,.AXIS3.,.POSITIVE.,0.,$);
#42=IFCOWNERHISTORY(#3,#29,.READWRITE.,.ADDED.,1786352126,#3,#29,1786352126);
#43=IFCRELASSOCIATESMATERIAL('0AUtaqcdb92vNOpayaVl4X',#42,$,$,(#38),#41);
#44=IFCOWNERHISTORY(#3,#29,.READWRITE.,.ADDED.,1786352126,#3,#29,1786352126);
#45=IFCRELCONTAINEDINSPATIALSTRUCTURE('39JhH1Aj9FofKFGxDHtn1B',#44,$,$,(#38),#21);
#46=IFCCARTESIANPOINT((0.,0.,0.));
#47=IFCDIRECTION((0.,0.,1.));
#48=IFCDIRECTION((1.,0.,0.));
#49=IFCAXIS2PLACEMENT3D(#46,#47,#48);
#50=IFCLOCALPLACEMENT(#20,#49);
#51=IFCCARTESIANPOINTLIST2D(((0.,0.),(6000.,0.),(6000.,4000.),(0.,4000.),(0.,0.)));
#52=IFCINDEXEDPOLYCURVE(#51,$,$);
#53=IFCDIRECTION((0.,0.,1.));
#54=IFCARBITRARYCLOSEDPROFILEDEF(.AREA.,$,#52);
#55=IFCEXTRUDEDAREASOLID(#54,$,#53,150.);
#56=IFCSHAPEREPRESENTATION(#25,'Body','SweptSolid',(#55));
#57=IFCPRODUCTDEFINITIONSHAPE($,$,(#56));
ENDSEC;
END-ISO-10303-21;
